<svg width="150" height="148" viewBox="0 0 150 148" fill="none" xmlns="http://www.w3.org/2000/svg">
<path d="M147.444 53.5886C150.392 64.5897 150.796 76.1177 148.624 87.2981C146.453 98.4784 141.764 109.017 134.913 118.116C128.062 127.214 119.229 134.632 109.084 139.808C98.9384 144.984 87.7477 147.781 76.3604 147.988C64.973 148.194 53.6882 145.805 43.3619 141C33.0357 136.196 23.9392 129.103 16.7626 120.259C9.58607 111.415 4.51788 101.053 1.94255 89.959C-0.632787 78.8648 -0.64762 67.3297 1.89917 56.2289L11.6337 58.4623C9.42602 68.0848 9.43887 78.0838 11.6713 87.7007C13.9037 97.3175 18.2969 106.3 24.5178 113.966C30.7387 121.632 38.6238 127.78 47.575 131.945C56.5262 136.11 66.3083 138.181 76.1792 138.002C86.0501 137.823 95.7507 135.398 104.545 130.911C113.339 126.425 120.996 119.994 126.935 112.108C132.874 104.221 136.938 95.0856 138.82 85.3941C140.702 75.7026 140.353 65.7097 137.797 56.1735L147.444 53.5886Z" fill="#122344"/>
<path d="M29.1865 0.922852C34.3314 1.11165 40.7507 1.25326 48.4443 1.34766C56.138 1.44206 65.1769 1.48926 75.561 1.48926C85.9451 1.48926 94.984 1.44206 102.678 1.34766C110.419 1.25326 116.885 1.11165 122.077 0.922852C122.36 2.95247 122.714 4.9113 123.139 6.79932C123.564 8.64014 124.272 10.6934 125.263 12.959L127.387 17.7734L132.556 27.8271C132.225 28.5824 131.399 29.2196 130.078 29.7388C128.473 26.7651 126.514 23.9331 124.201 21.2427C121.888 18.5522 118.938 16.1214 115.351 13.9502C111.811 11.779 107.469 9.96175 102.324 8.49854C97.2261 7.03532 91.0664 6.04411 83.8447 5.5249C83.6087 11.425 83.4199 18.1038 83.2783 25.5615C83.1839 32.972 83.1367 41.2321 83.1367 50.3418C83.1367 59.4987 83.1839 67.806 83.2783 75.2637C83.4199 82.7214 83.6087 89.4002 83.8447 95.3003C83.8919 96.4331 84.3403 97.4007 85.1899 98.2031C86.0396 98.9583 87.196 99.5955 88.6592 100.115C90.1696 100.634 91.8924 101.059 93.8276 101.389C95.8101 101.672 97.9341 101.908 100.2 102.097C100.389 102.9 100.483 103.537 100.483 104.009C100.483 104.434 100.389 104.906 100.2 105.425C92.27 105.142 84.0571 105 75.561 105C67.1121 105 58.8993 105.142 50.9224 105.425C50.7336 104.906 50.6392 104.434 50.6392 104.009C50.6392 103.537 50.7336 102.9 50.9224 102.097L54.3208 101.743C55.548 101.602 56.9168 101.413 58.4272 101.177C59.9377 100.894 61.3301 100.516 62.6045 100.044C63.9261 99.5719 65.0353 98.9819 65.9321 98.2739C66.8289 97.5659 67.2773 96.6927 67.2773 95.6543V95.3003C67.5133 86.6626 67.7021 78.6149 67.8438 71.1572C67.9854 63.6995 68.0562 56.7611 68.0562 50.3418C68.0562 43.9697 67.9854 37.0785 67.8438 29.668C67.7021 22.2103 67.5133 14.1626 67.2773 5.5249C60.4805 5.90251 54.5568 6.82292 49.5063 8.28613C44.5031 9.70215 40.1606 11.4958 36.479 13.667C32.7974 15.791 29.7293 18.2454 27.2749 21.0303C24.8205 23.7679 22.7909 26.6707 21.186 29.7388C19.8644 29.2196 19.0384 28.5824 18.708 27.8271L21.894 21.8091L23.3809 18.7646C23.9945 17.4902 24.6081 16.1922 25.2217 14.8706C25.8353 13.549 26.4017 12.1802 26.9209 10.7642C27.4873 9.30094 27.9593 7.76693 28.3369 6.16211C28.7145 4.51009 28.9977 2.76367 29.1865 0.922852Z" fill="#00A0E0"/>
</svg>
